# xmcd
#
# Track frame offsets: 
#        150
#        19637
#        39952
#        63099
#        80931
#        102681
#        121081
#        141637
#        163018
#        182780
#        204572
#        218601
#        234124
#
# Disc length: 3522 seconds
#
# Revision: 0
# Processed by: cddbd v1.5.2PL0 Copyright (c) Steve Scherf et al.
# Submitted via: ExactAudioCopy v0.95b3
#
DISCID=b10dc00d
DTITLE=Wade Bowen - Lost Hotel
DYEAR=2006
DGENRE=Country
TTITLE0=God Bless This Town
TTITLE1=One Step Closer
TTITLE2=Walkin' Along the Fenceline
TTITLE3=Resurrection
TTITLE4=Perfect Silence
TTITLE5=Lay It All on You
TTITLE6=Lost Hotel
TTITLE7=It's All Over Town
TTITLE8=Handle
TTITLE9=Broken Reflection
TTITLE10=Crazy Enough
TTITLE11=Lost Control of My Heart
TTITLE12=Mood Ring
EXTD=
EXTT0=
EXTT1=
EXTT2=
EXTT3=
EXTT4=
EXTT5=
EXTT6=
EXTT7=
EXTT8=
EXTT9=
EXTT10=
EXTT11=
EXTT12=
PLAYORDER=
